Input #0, mov,mp4,m4a,3gp,3g2,mj2, from '/home/hbattu/projects/huberman-gpt/huberman-audio/mp3/tmp6bxad8c3.mp4':
  Metadata:
    major_brand     : dash
    minor_version   : 0
    compatible_brands: iso6mp41
    creation_time   : 2022-11-01T13:10:34.000000Z
  Duration: 01:57:49.59, start: 0.000000, bitrate: 129 kb/s
    Stream #0:0(eng): Audio: aac (LC) (mp4a / 0x6134706D), 44100 Hz, stereo, fltp, 0 kb/s (default)
    Metadata:
      creation_time   : 2022-11-01T13:10:34.000000Z
      handler_name    : ISO Media file produced by Google Inc.
Stream mapping:
  Stream #0:0 -> #0:0 (aac (native) -> mp3 (libmp3lame))
Press [q] to stop, [?] for help
[graph_0_in_0_0 @ 0x561bb8108c40] tb:1/44100 samplefmt:fltp samplerate:44100 chlayout:0x3
Output #0, mp3, to '../huberman-audio/mp3/q1Ss8sTbFBY.mp3':
  Metadata:
    major_brand     : dash
    minor_version   : 0
    compatible_brands: iso6mp41
    TSSE            : Lavf58.29.100
    Stream #0:0(eng): Audio: mp3 (libmp3lame), 44100 Hz, stereo, fltp, delay 1105 (default)
    Metadata:
      creation_time   : 2022-11-01T13:10:34.000000Z
      handler_name    : ISO Media file produced by Google Inc.
      encoder         : Lavc58.54.100 libmp3lame
No more output streams to write to, finishing.
size=  110463kB time=01:57:49.59 bitrate= 128.0kbits/s speed=95.8x    
[AVIOContext @ 0x561bb7ff9900] Statistics: 0 seeks, 148 writeouts
video:0kB audio:110463kB subtitle:0kB other streams:0kB global headers:0kB muxing overhead: 0.000306%
Input file #0 (/home/hbattu/projects/huberman-gpt/huberman-audio/mp3/tmp6bxad8c3.mp4):
  Input stream #0:0 (audio): 304462 packets read (113113501 bytes); 304462 frames decoded (311769088 samples); 
  Total: 304462 packets (113113501 bytes) demuxed
Output file #0 (../huberman-audio/mp3/q1Ss8sTbFBY.mp3):
  Output stream #0:0 (audio): 270633 frames encoded (311769088 samples); 270634 packets muxed (113113965 bytes); 
  Total: 270634 packets (113113965 bytes) muxed
[AVIOContext @ 0x561bb8024040] Statistics: 2 seeks, 433 writeouts
[AVIOContext @ 0x561bb8002880] Statistics: 114414257 bytes read, 0 seeks
